<svg width="230" height="276" viewBox="0 0 230 276" fill="none" xmlns="http://www.w3.org/2000/svg">
<rect x="30.1157" y="10.5394" width="200" height="250" rx="10" transform="rotate(4.5 30.1157 10.5394)" fill="#D1A4FF"/>
<rect x="20.1157" y="0.539429" width="200" height="250" rx="10" transform="rotate(4.5 20.1157 0.539429)" fill="#C084FC"/>
<path d="M40.1504 152.382C38.591 152.546 37.3114 152.311 36.3116 151.676C35.3117 151.041 34.6846 150.125 34.4302 148.929L37.0318 148.656C37.1859 149.203 37.512 149.627 38.0102 149.929C38.5244 150.228 39.1713 150.337 39.951 150.255C40.6989 150.177 41.2559 149.966 41.6219 149.621C42.0022 149.26 42.1706 148.872 42.1271 148.458C42.0635 147.854 41.7734 147.466 41.2567 147.295C40.7559 147.122 40.0303 147.03 39.0797 147.017C38.2582 147.007 37.499 146.901 36.8023 146.701C36.1198 146.483 35.5625 146.156 35.1304 145.719C34.6967 145.265 34.4413 144.673 34.3644 143.941C34.2557 142.907 34.5736 142.029 35.3183 141.307C36.0629 140.585 37.1592 140.148 38.6072 139.996C40.0553 139.844 41.2114 140.052 42.0756 140.621C42.9398 141.189 43.4949 142.032 43.7409 143.148L41.3063 143.404C41.1925 142.934 40.9066 142.586 40.4485 142.36C39.9888 142.119 39.4406 142.032 38.8041 142.099C38.1517 142.167 37.648 142.349 37.2928 142.644C36.936 142.922 36.7785 143.261 36.8203 143.659C36.9106 144.518 37.8888 144.946 39.7547 144.943C40.6399 144.946 41.4371 145.032 42.1465 145.198C42.8541 145.349 43.4327 145.65 43.8824 146.102C44.3304 146.537 44.6004 147.193 44.6924 148.068C44.7835 148.782 44.6444 149.448 44.275 150.066C43.9215 150.683 43.3883 151.197 42.6756 151.61C41.9787 152.021 41.137 152.279 40.1504 152.382ZM48.1815 156.558L46.3853 139.468L48.5812 139.237L48.9628 141.031L49.106 141.016C49.3624 140.394 49.7879 139.85 50.3826 139.386C50.9915 138.903 51.7415 138.615 52.6326 138.522C53.5555 138.425 54.424 138.575 55.2379 138.972C56.0502 139.353 56.7277 139.982 57.2702 140.858C57.827 141.716 58.1773 142.83 58.3211 144.198C58.4633 145.551 58.3442 146.713 57.9638 147.687C57.5994 148.658 57.0444 149.424 56.299 149.985C55.5519 150.53 54.685 150.855 53.6984 150.958C52.8233 151.05 52.0729 150.952 51.4474 150.664C50.8218 150.376 50.3424 150.024 50.0091 149.609L50.7116 156.292L48.1815 156.558ZM53.0154 148.593C53.9065 148.499 54.613 148.103 55.1349 147.405C55.6726 146.705 55.8746 145.718 55.7408 144.445C55.607 143.172 55.2052 142.257 54.5353 141.7C53.8813 141.141 53.1088 140.909 52.2177 141.003C51.3107 141.098 50.5883 141.496 50.0505 142.196C49.527 142.878 49.3321 143.856 49.4659 145.129C49.598 146.386 49.9919 147.302 50.6476 147.876C51.3191 148.449 52.1084 148.688 53.0154 148.593ZM65.2176 149.748C64.2788 149.846 63.4744 149.77 62.8045 149.519C62.1328 149.251 61.6095 148.864 61.2344 148.356C60.8576 147.833 60.6349 147.245 60.5663 146.593C60.4443 145.431 60.7706 144.48 61.5454 143.739C62.3361 142.996 63.5111 142.543 65.0705 142.379L68.1257 142.058L68.0981 141.795C67.9108 140.013 66.9897 139.209 65.3348 139.383C64.6506 139.455 64.0857 139.667 63.6401 140.019C63.2087 140.354 62.9478 140.856 62.8572 141.525L60.3272 141.791C60.324 140.537 60.7542 139.502 61.6178 138.687C62.4956 137.855 63.6585 137.363 65.1065 137.211C66.8569 137.027 68.175 137.322 69.061 138.098C69.9469 138.874 70.4693 140.017 70.6282 141.529L71.3933 148.809L69.2452 149.035L68.8472 147.315L68.6801 147.332C68.3886 147.926 68.0012 148.45 67.5179 148.903C67.0346 149.356 66.2678 149.637 65.2176 149.748ZM65.4717 147.573C66.506 147.464 67.2452 147.073 67.6891 146.399C68.1473 145.707 68.3493 144.874 68.295 143.898L65.5263 144.189C64.6193 144.284 63.9907 144.503 63.6406 144.846C63.3047 145.171 63.1644 145.596 63.2196 146.121C63.2747 146.646 63.5012 147.04 63.899 147.304C64.311 147.55 64.8352 147.64 65.4717 147.573ZM79.5772 148.238C78.4792 148.354 77.4659 148.203 76.5372 147.786C75.6244 147.367 74.8729 146.722 74.2826 145.851C73.6906 144.964 73.3286 143.892 73.1964 142.635C73.0643 141.378 73.1964 140.262 73.5927 139.287C74.0049 138.31 74.6138 137.522 75.4196 136.923C76.2237 136.308 77.1747 135.942 78.2726 135.827C79.7843 135.668 81.0417 135.922 82.0449 136.589C83.0624 137.238 83.7678 138.209 84.1612 139.503L81.5118 139.782C81.2925 139.226 80.9186 138.806 80.3902 138.524C79.8777 138.24 79.2475 138.138 78.4996 138.216C77.9586 138.273 77.4565 138.471 76.9933 138.809C76.5461 139.145 76.2014 139.616 75.9592 140.221C75.7314 140.808 75.6617 141.523 75.7504 142.366C75.8373 143.194 76.0541 143.879 76.4008 144.421C76.7633 144.963 77.1992 145.359 77.7083 145.611C78.2317 145.846 78.7639 145.935 79.3049 145.878C80.0687 145.798 80.6638 145.566 81.0901 145.184C81.5165 144.801 81.7942 144.305 81.9232 143.696L84.5726 143.418C84.3915 144.756 83.8797 145.856 83.037 146.716C82.1944 147.577 81.0411 148.085 79.5772 148.238ZM92.6716 146.862C91.526 146.983 90.4888 146.834 89.5601 146.417C88.6297 145.984 87.8694 145.332 87.2791 144.461C86.6888 143.59 86.3293 142.541 86.2005 141.316C86.07 140.075 86.1942 138.96 86.5729 137.971C86.9675 136.98 87.5748 136.176 88.3947 135.559C89.2306 134.94 90.2294 134.57 91.391 134.448C92.5367 134.328 93.5509 134.486 94.4335 134.925C95.3144 135.347 96.0229 135.964 96.5587 136.777C97.1105 137.587 97.4407 138.51 97.5494 139.544C97.5662 139.703 97.5846 139.878 97.6046 140.069C97.623 140.244 97.636 140.444 97.6435 140.668L88.7405 141.604C88.9355 142.694 89.3813 143.492 90.078 143.998C90.773 144.488 91.5502 144.687 92.4095 144.597C93.1573 144.518 93.7302 144.305 94.1281 143.958C94.5402 143.593 94.8212 143.129 94.9712 142.566L97.5251 142.298C97.3575 143.458 96.8611 144.475 96.036 145.35C95.2093 146.209 94.0878 146.713 92.6716 146.862ZM91.5979 136.646C90.8182 136.728 90.1511 137.04 89.5966 137.581C89.0405 138.106 88.7192 138.799 88.6328 139.661L94.9341 138.999C94.7868 138.21 94.4088 137.598 93.8 137.163C93.1912 136.728 92.4572 136.556 91.5979 136.646ZM113.412 144.393L113.182 142.197L116.07 141.893L115.37 135.234C115.315 134.709 115.032 134.473 114.523 134.526L112.638 134.725L112.407 132.529L115.247 132.23C115.9 132.162 116.453 132.297 116.907 132.635C117.359 132.957 117.62 133.453 117.69 134.121L117.72 134.408L117.84 134.395C117.921 133.486 118.225 132.778 118.751 132.272C119.291 131.749 120.118 131.429 121.232 131.312L123.07 131.118L123.351 133.792L120.773 134.063C119.834 134.161 119.144 134.564 118.704 135.269C118.263 135.975 118.09 136.782 118.186 137.689L118.6 141.627L122.275 141.241L122.506 143.437L113.412 144.393ZM132.027 142.726C130.881 142.846 129.844 142.698 128.915 142.281C127.985 141.847 127.224 141.195 126.634 140.324C126.044 139.453 125.684 138.405 125.556 137.18C125.425 135.939 125.549 134.824 125.928 133.835C126.323 132.844 126.93 132.04 127.75 131.423C128.586 130.804 129.584 130.434 130.746 130.312C131.892 130.191 132.906 130.35 133.789 130.788C134.67 131.21 135.378 131.828 135.914 132.64C136.466 133.451 136.796 134.373 136.905 135.408C136.921 135.567 136.94 135.742 136.96 135.933C136.978 136.108 136.991 136.308 136.999 136.532L128.096 137.468C128.291 138.557 128.736 139.355 129.433 139.861C130.128 140.351 130.905 140.551 131.765 140.461C132.512 140.382 133.085 140.169 133.483 139.822C133.895 139.456 134.176 138.993 134.326 138.43L136.88 138.161C136.713 139.321 136.216 140.339 135.391 141.214C134.564 142.073 133.443 142.577 132.027 142.726ZM130.953 132.51C130.173 132.592 129.506 132.903 128.952 133.444C128.396 133.969 128.074 134.663 127.988 135.524L134.289 134.862C134.142 134.073 133.764 133.461 133.155 133.027C132.546 132.592 131.812 132.42 130.953 132.51ZM140.01 146.906L138.214 129.816L140.41 129.585L140.791 131.379L140.935 131.364C141.191 130.742 141.616 130.199 142.211 129.734C142.82 129.252 143.57 128.964 144.461 128.87C145.384 128.773 146.253 128.923 147.067 129.32C147.879 129.701 148.556 130.33 149.099 131.206C149.656 132.065 150.006 133.178 150.15 134.547C150.292 135.899 150.173 137.062 149.792 138.035C149.428 139.006 148.873 139.773 148.128 140.334C147.38 140.879 146.514 141.203 145.527 141.307C144.652 141.399 143.901 141.301 143.276 141.012C142.65 140.724 142.171 140.372 141.838 139.957L142.54 146.64L140.01 146.906ZM144.844 138.941C145.735 138.848 146.442 138.452 146.963 137.753C147.501 137.053 147.703 136.067 147.569 134.794C147.436 133.521 147.034 132.606 146.364 132.049C145.71 131.49 144.937 131.257 144.046 131.351C143.139 131.446 142.417 131.844 141.879 132.544C141.356 133.227 141.161 134.204 141.294 135.477C141.427 136.734 141.82 137.65 142.476 138.225C143.148 138.798 143.937 139.037 144.844 138.941ZM158.263 139.968C157.118 140.089 156.081 139.94 155.152 139.523C154.222 139.09 153.461 138.438 152.871 137.567C152.281 136.696 151.921 135.647 151.792 134.422C151.662 133.181 151.786 132.066 152.165 131.077C152.559 130.086 153.167 129.282 153.987 128.665C154.822 128.046 155.821 127.676 156.983 127.554C158.129 127.434 159.143 127.592 160.025 128.031C160.906 128.453 161.615 129.07 162.151 129.883C162.702 130.693 163.033 131.616 163.141 132.65C163.158 132.809 163.176 132.984 163.196 133.175C163.215 133.35 163.228 133.55 163.235 133.774L154.332 134.71C154.527 135.8 154.973 136.598 155.67 137.104C156.365 137.594 157.142 137.793 158.001 137.703C158.749 137.625 159.322 137.411 159.72 137.064C160.132 136.699 160.413 136.235 160.563 135.672L163.117 135.404C162.949 136.564 162.453 137.581 161.628 138.456C160.801 139.315 159.68 139.819 158.263 139.968ZM157.19 129.752C156.41 129.834 155.743 130.146 155.188 130.687C154.632 131.212 154.311 131.905 154.225 132.767L160.526 132.105C160.379 131.316 160.001 130.704 159.392 130.269C158.783 129.834 158.049 129.662 157.19 129.752ZM170.165 138.717C169.226 138.816 168.421 138.74 167.751 138.488C167.08 138.221 166.556 137.834 166.181 137.326C165.805 136.803 165.582 136.215 165.513 135.562C165.391 134.401 165.718 133.449 166.492 132.708C167.283 131.965 168.458 131.512 170.017 131.348L173.073 131.027L173.045 130.765C172.858 128.982 171.937 128.178 170.282 128.352C169.598 128.424 169.033 128.636 168.587 128.989C168.156 129.324 167.895 129.826 167.804 130.495L165.274 130.761C165.271 129.506 165.701 128.472 166.565 127.657C167.443 126.825 168.605 126.332 170.053 126.18C171.804 125.996 173.122 126.292 174.008 127.068C174.894 127.843 175.416 128.987 175.575 130.499L176.34 137.779L174.192 138.004L173.794 136.285L173.627 136.302C173.336 136.896 172.948 137.419 172.465 137.872C171.982 138.325 171.215 138.607 170.165 138.717ZM170.419 136.543C171.453 136.434 172.192 136.043 172.636 135.369C173.094 134.677 173.296 133.843 173.242 132.868L170.473 133.159C169.566 133.254 168.938 133.473 168.588 133.815C168.252 134.14 168.111 134.565 168.166 135.09C168.222 135.615 168.448 136.01 168.846 136.274C169.258 136.52 169.782 136.61 170.419 136.543ZM185.616 136.804C184.454 136.926 183.502 136.744 182.759 136.259C182.015 135.758 181.566 134.784 181.414 133.336L180.802 127.512L177.819 127.826L177.593 125.677L179.359 125.492C180.171 125.406 180.606 124.958 180.666 124.148L180.823 122.201L182.78 121.995L183.106 125.098L187.785 124.606L188.01 126.754L183.332 127.246L183.939 133.022C184.005 133.643 184.186 134.066 184.483 134.292C184.795 134.501 185.292 134.569 185.977 134.497L188.745 134.206L188.981 136.45L185.616 136.804Z" fill="white"/>
</svg>
